<svg width="187" height="36" viewBox="0 0 187 36" fill="none" xmlns="http://www.w3.org/2000/svg">
<g clip-path="url(#clip0_2652_6423)">
<path d="M63.3153 31.603L44.2678 4.08001C44.2678 4.08001 42.9641 3.64778 41.7941 4.32076C40.7481 4.92193 40.0624 6.00601 40.0624 6.00742L39.3754 6.99999C39.7161 6.52131 40.4313 6.52271 40.7664 7.00844L56.173 29.2716C56.7123 30.0501 56.1547 31.1131 55.2072 31.1131H47.1695C46.7866 31.1131 46.429 30.9272 46.2093 30.6133L35.7965 15.7811C35.7965 15.7811 35.7852 15.7768 35.7824 15.7811L35.3009 16.4766C34.7166 17.3199 34.3435 18.2998 34.2788 19.3219C34.1999 20.5679 34.5392 21.7787 35.2446 22.7938L43.0599 34.0401C43.7624 35.051 44.9141 35.6522 46.1446 35.6522H61.1908C63.2731 35.6522 64.4994 33.3136 63.3139 31.6002L63.3153 31.603Z" fill="url(#paint0_linear_2652_6423)"/>
<path d="M43.4328 2.87351L42.8472 2.02736L42.2418 1.15305C41.1872 -0.370293 38.9374 -0.373109 37.8801 1.14742L37.2775 2.01328L17.4965 30.6063C17.2769 30.9231 16.9164 31.1118 16.5307 31.1118H8.50001C7.55249 31.1118 6.99637 30.0474 7.5356 29.2688L23.038 6.89869C23.3435 6.45661 23.9968 6.45661 24.3037 6.89869L27.6207 11.6799C27.6531 11.7264 27.7221 11.7264 27.7545 11.6799L28.1768 11.0703C28.7259 10.2777 29.1018 9.36956 29.2102 8.41219C29.3651 7.04652 29.0342 5.70339 28.2754 4.5827L25.8538 1.13194C24.7922 -0.380149 22.5495 -0.373109 21.4978 1.14601L0.477793 31.4877C-0.741449 33.2489 0.518622 35.655 2.66004 35.655H17.5556C18.7875 35.655 19.942 35.0496 20.6446 34.0374L31.7585 17.9817L31.7628 17.9887L39.3753 7.00006L40.0623 6.00749C40.0623 6.00749 40.748 4.922 41.794 4.32083C42.964 3.64785 44.2677 4.08008 44.2677 4.08008L43.4314 2.8721L43.4328 2.87351Z" fill="url(#paint1_linear_2652_6423)"/>
<path d="M78.4069 8.57092V20.8886C78.4069 22.2388 78.7588 23.2694 79.4614 23.9818C80.1639 24.6942 81.1537 25.0504 82.4264 25.0504C83.6992 25.0504 84.7171 24.6942 85.4196 23.9818C86.1222 23.2694 86.4741 22.2374 86.4741 20.8886V8.57092H90.4951V20.8605C90.4951 22.5528 90.129 23.9832 89.3969 25.1518C88.6648 26.3203 87.6863 27.2003 86.4601 27.7888C85.2338 28.3787 83.8695 28.6729 82.3687 28.6729C80.8679 28.6729 79.5416 28.3787 78.3337 27.7888C77.1257 27.2003 76.1711 26.3203 75.4686 25.1518C74.7646 23.9832 74.4141 22.5528 74.4141 20.8605V8.57092H78.4055H78.4069Z" fill="#0B5BAA"/>
<path d="M98.2946 13.1466C99.1971 12.6623 100.229 12.4202 101.388 12.4202C102.737 12.4202 103.959 12.7524 105.051 13.4184C106.144 14.0843 107.008 15.029 107.646 16.2553C108.282 17.4816 108.6 18.9021 108.6 20.5184C108.6 22.1347 108.282 23.5651 107.646 24.8097C107.008 26.0543 106.144 27.0201 105.051 27.7043C103.957 28.3886 102.737 28.7307 101.388 28.7307C100.228 28.7307 99.207 28.4927 98.3228 28.0183C97.4386 27.5438 96.7206 26.9441 96.1701 26.2218V36.0011H92.1787V12.6764H96.1701V14.9572C96.684 14.2349 97.3908 13.631 98.2946 13.1466ZM103.94 18.0504C103.55 17.3563 103.038 16.8297 102.4 16.4679C101.764 16.1075 101.074 15.9258 100.333 15.9258C99.5927 15.9258 98.931 16.1117 98.2946 16.482C97.6569 16.8522 97.1444 17.3901 96.7544 18.0926C96.3644 18.7965 96.1701 19.623 96.1701 20.5733C96.1701 21.5236 96.3644 22.3515 96.7544 23.054C97.1444 23.758 97.6569 24.2944 98.2946 24.6647C98.931 25.0349 99.611 25.2208 100.333 25.2208C101.056 25.2208 101.764 25.0307 102.4 24.6506C103.036 24.2705 103.55 23.7284 103.94 23.0259C104.33 22.3233 104.525 21.4856 104.525 20.517C104.525 19.5484 104.329 18.7445 103.94 18.0504Z" fill="#0B5BAA"/>
<path d="M110.983 16.2696C111.62 15.0349 112.49 14.0846 113.592 13.4186C114.695 12.7541 115.921 12.4204 117.27 12.4204C118.296 12.4204 119.274 12.6443 120.206 13.0906C121.137 13.5369 121.879 14.131 122.431 14.873V7.37451H126.48V28.4733H122.431V26.1348C121.937 26.9148 121.243 27.5413 120.35 28.0171C119.456 28.4916 118.42 28.7295 117.241 28.7295C115.911 28.7295 114.695 28.3874 113.592 27.7032C112.49 27.0189 111.62 26.0545 110.983 24.8085C110.346 23.564 110.027 22.1335 110.027 20.5173C110.027 18.901 110.346 17.5044 110.983 16.2682V16.2696ZM121.889 18.0802C121.509 17.3861 120.995 16.8539 120.349 16.4836C119.702 16.1133 119.008 15.9275 118.268 15.9275C117.527 15.9275 116.842 16.1077 116.215 16.4695C115.587 16.8314 115.079 17.3579 114.69 18.052C114.3 18.7461 114.106 19.5683 114.106 20.5187C114.106 21.469 114.3 22.3011 114.69 23.0135C115.08 23.7259 115.593 24.2735 116.231 24.6523C116.867 25.0324 117.547 25.2225 118.269 25.2225C118.991 25.2225 119.704 25.0366 120.35 24.6663C120.996 24.2961 121.509 23.7639 121.89 23.0698C122.27 22.3757 122.461 21.545 122.461 20.575C122.461 19.6049 122.27 18.7743 121.89 18.0802H121.889Z" fill="#0B5BAA"/>
<path d="M128.717 16.2694C129.354 15.0346 130.218 14.0843 131.312 13.4184C132.404 12.7538 133.626 12.4202 134.975 12.4202C136.154 12.4202 137.186 12.6581 138.068 13.1326C138.953 13.6084 139.661 14.2068 140.193 14.929V12.6764H144.213V28.4716H140.193V26.1627C139.679 26.9046 138.971 27.5171 138.068 28.0014C137.166 28.4857 136.124 28.7279 134.946 28.7279C133.615 28.7279 132.403 28.3858 131.31 27.7015C130.217 27.0173 129.352 26.0529 128.716 24.8069C128.078 23.5623 127.76 22.1319 127.76 20.5156C127.76 18.8993 128.078 17.5027 128.716 16.2665L128.717 16.2694ZM139.623 18.0799C139.243 17.3858 138.729 16.8536 138.082 16.4834C137.436 16.1131 136.742 15.9272 136.002 15.9272C135.261 15.9272 134.575 16.1075 133.949 16.4693C133.321 16.8311 132.813 17.3577 132.424 18.0518C132.034 18.7459 131.84 19.5681 131.84 20.5184C131.84 21.4687 132.034 22.3008 132.424 23.0132C132.814 23.7256 133.327 24.2733 133.964 24.652C134.601 25.0321 135.281 25.2222 136.003 25.2222C136.725 25.2222 137.438 25.0364 138.084 24.6661C138.73 24.2958 139.243 23.7636 139.624 23.0695C140.004 22.3754 140.194 21.5448 140.194 20.5747C140.194 19.6047 140.004 18.774 139.624 18.0799H139.623Z" fill="#0B5BAA"/>
<path d="M151.74 15.9556V23.5963C151.74 24.1284 151.868 24.5142 152.124 24.7507C152.38 24.9887 152.813 25.1069 153.421 25.1069H155.274V28.4718H152.765C149.4 28.4718 147.717 26.8372 147.717 23.5681V15.9556H145.835V12.6766H147.717V8.76965H151.738V12.6766H155.274V15.9556H151.738H151.74Z" fill="#0B5BAA"/>
<path d="M172.04 12.6763V28.4716H168.02V26.4752C167.507 27.1594 166.838 27.6972 166.01 28.0858C165.182 28.4744 164.285 28.6701 163.315 28.6701C162.079 28.6701 160.987 28.4096 160.036 27.8859C159.086 27.3635 158.34 26.5934 157.798 25.5769C157.256 24.5604 156.985 23.3482 156.985 21.9417V12.6749H160.977V21.3715C160.977 22.626 161.291 23.5918 161.917 24.2662C162.545 24.9406 163.4 25.2784 164.484 25.2784C165.568 25.2784 166.451 24.9406 167.079 24.2662C167.707 23.5918 168.019 22.626 168.019 21.3715V12.6749H172.039L172.04 12.6763Z" fill="#0B5BAA"/>
<path d="M176.946 28.03C175.92 27.564 175.107 26.9318 174.508 26.1335C173.908 25.3353 173.581 24.4511 173.523 23.4825H177.543C177.619 24.0907 177.918 24.5947 178.441 24.9931C178.964 25.3916 179.614 25.5915 180.394 25.5915C181.174 25.5915 181.748 25.4394 182.176 25.1353C182.604 24.8312 182.818 24.4412 182.818 23.9668C182.818 23.4529 182.557 23.0685 182.034 22.8123C181.512 22.5561 180.68 22.2759 179.539 21.9718C178.361 21.6874 177.397 21.3917 176.645 21.0876C175.894 20.7835 175.248 20.3175 174.706 19.691C174.164 19.0631 173.894 18.2183 173.894 17.154C173.894 16.2796 174.146 15.4814 174.65 14.7591C175.154 14.0369 175.876 13.4667 176.817 13.0485C177.757 12.6304 178.865 12.4206 180.138 12.4206C182.02 12.4206 183.521 12.8908 184.643 13.8313C185.764 14.7718 186.382 16.0417 186.496 17.6383H182.675C182.618 17.0103 182.357 16.512 181.891 16.1417C181.425 15.7714 180.802 15.5856 180.024 15.5856C179.301 15.5856 178.745 15.7193 178.355 15.984C177.965 16.2501 177.771 16.6218 177.771 17.0962C177.771 17.6284 178.037 18.0325 178.569 18.3084C179.102 18.5844 179.928 18.8646 181.05 19.1489C182.19 19.4348 183.131 19.729 183.873 20.0331C184.615 20.3372 185.255 20.8075 185.798 21.4438C186.34 22.0816 186.62 22.9221 186.638 23.9668C186.638 24.8791 186.386 25.6971 185.882 26.4193C185.378 27.1416 184.656 27.7076 183.715 28.1159C182.775 28.5242 181.677 28.7283 180.422 28.7283C179.168 28.7283 177.97 28.496 176.943 28.03H176.946Z" fill="#0B5BAA"/>
</g>
<defs>
<linearGradient id="paint0_linear_2652_6423" x1="31.7699" y1="7.20977" x2="59.9166" y2="35.3551" gradientUnits="userSpaceOnUse">
<stop stop-color="#2E3192"/>
<stop offset="0.23" stop-color="#29439D"/>
<stop offset="0.73" stop-color="#1F67B3"/>
<stop offset="1" stop-color="#1C75BC"/>
</linearGradient>
<linearGradient id="paint1_linear_2652_6423" x1="22.1341" y1="35.655" x2="22.1341" y2="-1.56709e-05" gradientUnits="userSpaceOnUse">
<stop stop-color="#39B54A"/>
<stop offset="0.15" stop-color="#36B052"/>
<stop offset="0.4" stop-color="#30A26A"/>
<stop offset="0.71" stop-color="#268C91"/>
<stop offset="1" stop-color="#1C75BC"/>
</linearGradient>
<clipPath id="clip0_2652_6423">
<rect width="186.64" height="36" fill="white"/>
</clipPath>
</defs>
</svg>
